<?xml version="1.0" encoding="UTF-8" standalone="no"?>
<svg
   xmlns:dc="http://purl.org/dc/elements/1.1/"
   xmlns:cc="http://creativecommons.org/ns#"
   xmlns:rdf="http://www.w3.org/1999/02/22-rdf-syntax-ns#"
   xmlns:svg="http://www.w3.org/2000/svg"
   xmlns="http://www.w3.org/2000/svg"
   viewBox="0 0 1333.3333 933.33331"
   height="65"
   width="150"
   xml:space="preserve"
   id="svg2"
   version="1.1"><metadata
     id="metadata8"><rdf:RDF><cc:Work
         rdf:about=""><dc:format>image/svg+xml</dc:format><dc:type
           rdf:resource="http://purl.org/dc/dcmitype/StillImage" /></cc:Work></rdf:RDF></metadata><defs
     id="defs6"><clipPath
       id="clipPath18"
       clipPathUnits="userSpaceOnUse"><path
         id="path16"
         d="M 0,700 H 1000 V 0 H 0 Z" /></clipPath></defs><g
     transform="matrix(1.3333333,0,0,-1.3333333,0,933.33333)"
     id="g10"><g
       id="g12"><g
         clip-path="url(#clipPath18)"
         id="g14"><g
           transform="translate(215.9526,240.2621)"
           id="g20"><path
             id="path22"
             style="fill:#6e6d6d;fill-opacity:1;fill-rule:nonzero;stroke:none"
             d="m 0,0 c -2.073,-0.116 -4.138,-0.263 -6.241,-0.263 -61.049,0 -110.539,49.49 -110.539,110.539 0,61.049 49.49,110.539 110.539,110.539 51.527,0 94.819,-35.256 107.07,-82.961 h 60.093 c -1.624,9.918 -4.109,19.547 -7.376,28.806 -23.23,65.842 -85.994,113.026 -159.787,113.026 -93.562,0 -169.41,-75.848 -169.41,-169.41 0,-87.104 65.749,-158.819 150.317,-168.31 z" /></g><g
           transform="translate(257.8177,188.0973)"
           id="g24"><path
             id="path26"
             style="fill:#6e6d6d;fill-opacity:1;fill-rule:nonzero;stroke:none"
             d="M 0,0 C 61.048,18.054 107.739,69.545 118.796,133.286 H 58.519 C 55.537,122.357 0,0 0,0" /></g><g
           transform="translate(225.5925,388.4177)"
           id="g28"><path
             id="path30"
             style="fill:#6e6d6d;fill-opacity:1;fill-rule:nonzero;stroke:none"
             d="M 0,0 -17.005,-48.022 -34.008,0 h -27.33 l 34.596,-89.079 H -7.155 L 27.319,0 Z" /></g><g
           transform="translate(435.0033,312.7389)"
           id="g32"><path
             id="path34"
             style="fill:#6e6d6d;fill-opacity:1;fill-rule:nonzero;stroke:none"
             d="m 0,0 c -5.065,-5.504 -7.597,-11.857 -7.597,-19.047 0,-7.928 2.494,-14.646 7.488,-20.154 4.99,-5.504 11.523,-8.258 19.601,-8.258 7.779,0 14.166,2.838 19.158,8.511 4.989,5.673 7.488,12.271 7.488,19.79 0,7.813 -2.643,14.371 -7.929,19.679 C 32.924,5.828 26.39,8.48 18.611,8.48 11.267,8.333 5.065,5.508 0,0 m 18.611,-74.105 h -5.506 c -14.976,-0.147 -27.055,4.956 -36.229,15.305 -9.177,10.349 -13.764,22.717 -13.764,37.11 0,16.146 5.21,29.952 15.637,41.4 10.422,11.452 23.856,17.178 40.302,17.178 7.78,0 15.194,-1.504 22.242,-4.512 7.047,-3.012 13.287,-7.234 18.719,-12.666 5.58,-5.873 9.544,-12.222 11.893,-19.047 2.347,-6.83 3.524,-14.206 3.524,-22.135 0,-5.872 -0.699,-11.198 -2.091,-15.968 -1.398,-4.769 -3.271,-9.432 -5.618,-13.983 -1.176,-2.056 -2.386,-4.071 -3.632,-6.056 -1.25,-1.979 -2.534,-4.075 -3.855,-6.277 l -43.164,-64.967 h -34.356 z" /></g><g
           transform="translate(648.0752,228.2807)"
           id="g36"><path
             id="path38"
             style="fill:#6e6d6d;fill-opacity:1;fill-rule:nonzero;stroke:none"
             d="M 0,0 H 35.017 C 28.851,-14.682 18.791,-26.352 4.845,-35.015 -9.105,-43.682 -23.861,-48.082 -39.422,-48.229 h -0.549 -0.552 c -23.342,0 -43.239,8.405 -59.681,25.218 -16.446,16.809 -24.666,36.812 -24.666,60.01 0,23.051 8.258,42.872 24.775,59.463 16.518,16.591 36.081,24.884 58.691,24.884 16.297,0 31.676,-4.44 46.14,-13.321 C 19.194,99.14 29.582,87.065 35.898,71.796 L 1.542,72.018 c -4.992,6.016 -11.308,10.861 -18.94,14.536 -7.635,3.666 -15.563,5.503 -23.786,5.503 -14.831,0 -27.455,-5.543 -37.877,-16.626 C -89.488,64.344 -94.698,51.165 -94.698,35.9 c 0,-14.393 5.319,-27.166 15.966,-38.32 10.644,-11.159 23.233,-16.738 37.769,-16.738 8.073,0 15.561,1.686 22.463,5.063 6.901,3.377 13.068,8.004 18.5,13.877 z" /></g><g
           transform="translate(690.1397,346.766)"
           id="g40"><path
             id="path42"
             style="fill:#6e6d6d;fill-opacity:1;fill-rule:nonzero;stroke:none"
             d="M 0,0 H 31.714 L 75.538,-123.771 119.364,0 h 31.714 L 88.091,-162.75 H 63.207 Z" /></g><g
           transform="translate(884.2694,312.7389)"
           id="g44"><path
             id="path46"
             style="fill:#6e6d6d;fill-opacity:1;fill-rule:nonzero;stroke:none"
             d="m 0,0 c -5.065,-5.504 -7.597,-11.857 -7.597,-19.047 0,-7.928 2.494,-14.646 7.488,-20.154 4.99,-5.504 11.523,-8.258 19.601,-8.258 7.779,0 14.166,2.838 19.158,8.511 4.989,5.673 7.488,12.271 7.488,19.79 0,7.813 -2.643,14.371 -7.929,19.679 C 32.924,5.828 26.39,8.48 18.611,8.48 11.267,8.333 5.065,5.508 0,0 m 18.611,-74.105 h -5.506 c -14.976,-0.147 -27.055,4.956 -36.229,15.305 -9.177,10.349 -13.764,22.717 -13.764,37.11 0,16.146 5.21,29.952 15.637,41.4 10.422,11.452 23.856,17.178 40.302,17.178 7.78,0 15.194,-1.504 22.242,-4.512 7.047,-3.012 13.287,-7.234 18.719,-12.666 5.58,-5.873 9.544,-12.222 11.893,-19.047 2.347,-6.83 3.524,-14.206 3.524,-22.135 0,-5.872 -0.699,-11.198 -2.091,-15.968 -1.398,-4.769 -3.271,-9.432 -5.618,-13.983 -1.176,-2.056 -2.387,-4.071 -3.632,-6.056 -1.25,-1.979 -2.534,-4.075 -3.855,-6.277 l -43.164,-64.967 h -34.356 z" /></g></g></g></g></svg>